<?xml version="1.0" standalone="no"?>
<!DOCTYPE svg PUBLIC "-//W3C//DTD SVG 20010904//EN"
 "http://www.w3.org/TR/2001/REC-SVG-20010904/DTD/svg10.dtd">
<svg version="1.0" xmlns="http://www.w3.org/2000/svg"
 width="256.000000pt" height="256.000000pt" viewBox="0 0 256.000000 256.000000"
 preserveAspectRatio="xMidYMid meet">
<metadata>
Created by potrace 1.16, written by Peter Selinger 2001-2019
</metadata>
<g transform="translate(0.000000,256.000000) scale(0.100000,-0.100000)"
fill="#000000" stroke="none">
<path d="M92 2543 c-18 -9 -45 -32 -60 -51 l-27 -35 0 -1178 c0 -1174 0 -1178
21 -1205 11 -15 33 -37 48 -48 27 -21 33 -21 1200 -24 l1173 -2 34 23 c18 12
44 38 56 56 l23 34 -2 1173 c-3 1167 -3 1173 -24 1200 -11 15 -33 37 -48 48
-27 21 -33 21 -1194 23 -1065 2 -1170 1 -1200 -14z m589 -73 c21 -12 26 -59 8
-77 -8 -8 -7 -17 5 -34 22 -32 20 -39 -11 -39 -21 0 -33 9 -48 33 l-19 32 -4
-32 c-3 -27 -8 -33 -28 -33 -23 0 -24 2 -24 80 l0 80 51 0 c28 0 59 -5 70 -10z
m257 -6 c43 -30 18 -60 -27 -32 -26 16 -53 -6 -49 -40 4 -35 35 -53 52 -29 10
13 19 15 35 9 22 -8 22 -8 3 -32 -28 -34 -96 -35 -123 -1 -61 75 31 180 109
125z m179 -61 l31 -78 -26 -3 c-15 -2 -28 1 -30 7 -5 14 -62 15 -62 1 0 -5
-11 -10 -25 -10 -30 0 -30 1 -4 70 30 80 37 90 63 90 19 0 28 -12 53 -77z
m317 56 c20 -16 26 -29 26 -61 0 -61 -20 -78 -92 -78 l-58 0 0 73 c0 41 3 77
7 80 15 16 91 6 117 -14z m171 9 c32 -14 43 -51 32 -107 -11 -53 -109 -65
-142 -18 -23 33 -19 84 10 112 26 27 60 32 100 13z m141 -30 l29 -43 3 43 c3
34 7 42 23 42 17 0 19 -7 19 -80 0 -78 -1 -80 -24 -80 -17 0 -31 11 -48 38
l-23 37 -3 -37 c-3 -33 -7 -38 -28 -38 -23 0 -24 2 -24 80 0 77 1 80 24 80 16
0 32 -13 52 -42z m244 22 c0 -17 -7 -20 -40 -20 -22 0 -40 -4 -40 -10 0 -5 16
-10 35 -10 28 0 35 -4 35 -20 0 -16 -7 -20 -35 -20 -24 0 -35 -5 -35 -15 0
-11 11 -15 40 -15 29 0 40 -4 40 -15 0 -12 -14 -15 -70 -15 l-70 0 0 73 c0 41
3 77 7 80 3 4 35 7 70 7 56 0 63 -2 63 -20z m490 -350 c0 -12 -14 -29 -35 -42
-43 -28 -44 -36 -2 -40 24 -2 32 -8 32 -23 0 -18 -8 -20 -78 -23 l-78 -3 3 68
c3 66 4 68 31 71 16 2 34 -1 40 -6 8 -7 20 -6 37 3 35 20 50 18 50 -5z m-2350
-85 c-6 -8 -10 -22 -7 -32 4 -16 5 -16 11 2 18 52 33 70 58 73 37 4 63 -35 55
-85 -6 -36 -20 -53 -44 -53 -19 0 -16 41 5 56 14 11 15 15 3 26 -8 8 -15 9
-17 3 -16 -42 -42 -80 -56 -83 -25 -5 -58 34 -58 68 0 17 9 39 21 51 20 20 23
20 31 5 6 -11 6 -22 -2 -31z m1015 -10 c158 -37 289 -134 351 -260 25 -51 29
-74 32 -158 l4 -99 109 -153 c60 -84 109 -155 109 -159 0 -3 -13 -6 -29 -6
-15 0 -41 -10 -56 -22 -48 -38 -58 -78 -63 -256 -5 -196 -3 -193 -120 -167
-131 29 -222 3 -262 -74 -30 -61 -50 -154 -50 -240 l0 -81 -166 0 -167 0 7 93
c13 171 42 243 111 277 37 18 56 21 98 16 138 -17 175 -18 195 -7 19 10 21 20
24 188 2 148 6 184 21 211 19 35 22 37 80 47 21 3 40 12 43 19 3 7 -47 82
-110 167 -105 140 -116 158 -116 197 0 76 -21 186 -46 238 -45 96 -163 181
-306 221 -63 18 -63 18 -28 25 56 11 259 1 335 -17z m195 10 c175 -14 348 -81
435 -169 69 -69 92 -132 98 -265 l5 -101 110 -154 c61 -85 108 -157 104 -160
-3 -3 -20 -6 -38 -6 -39 0 -78 -41 -93 -98 -6 -20 -12 -104 -15 -186 -2 -82
-9 -153 -14 -158 -6 -6 -32 -8 -59 -4 -164 20 -200 19 -240 -3 -21 -12 -48
-36 -60 -54 -32 -48 -63 -173 -63 -255 l0 -72 -155 0 -155 0 -6 26 c-11 42 2
165 24 229 25 71 73 120 128 131 22 4 72 0 123 -9 84 -16 135 -14 147 5 3 5 8
80 10 166 3 86 9 174 15 194 11 42 50 78 85 78 29 0 54 10 54 21 0 4 -50 78
-111 164 l-111 155 -5 91 c-2 49 -11 109 -19 132 -36 103 -140 216 -242 262
-31 14 -70 32 -87 40 l-30 15 45 -5 c25 -2 79 -7 120 -10z m-642 -11 c160 -25
278 -74 361 -149 67 -61 101 -159 101 -294 l1 -66 114 -154 c63 -84 115 -155
115 -156 0 -1 -18 -5 -39 -9 -85 -13 -115 -101 -104 -311 6 -143 2 -152 -75
-141 -135 18 -172 19 -217 1 -85 -32 -121 -111 -132 -292 l-6 -103 -174 0
c-125 0 -183 4 -206 14 -39 16 -82 61 -96 99 -8 19 -11 280 -11 803 l0 774
135 0 c74 0 179 -7 233 -16z m1760 -91 c49 -54 10 -133 -67 -133 -31 0 -44 6
-60 26 -70 89 50 191 127 107z m-2233 -38 c47 -46 26 -127 -36 -140 -66 -15
-119 38 -104 104 13 62 94 83 140 36z m2225 -133 c17 -14 22 -29 23 -72 l2
-55 -77 -3 -78 -3 0 60 c0 51 3 62 22 75 30 21 81 20 108 -2z m-2200 -57 c0
-18 -11 -32 -42 -52 l-42 -28 43 -3 c37 -3 42 -6 39 -25 -3 -20 -8 -22 -78
-22 -73 0 -75 1 -78 25 -2 19 6 31 35 50 l37 25 -37 3 c-32 3 -37 7 -37 28 0
23 2 24 80 24 79 0 80 0 80 -25z m2230 -115 c0 -11 -7 -23 -15 -26 -8 -4 -15
-18 -15 -34 0 -16 7 -30 15 -34 15 -5 21 -37 9 -48 -3 -3 -37 7 -77 22 -65 25
-72 30 -75 57 -3 29 1 32 60 56 78 32 98 33 98 7z m-2230 -61 c0 -11 -7 -22
-15 -25 -8 -4 -15 -18 -15 -34 0 -16 7 -30 15 -34 16 -6 21 -46 6 -46 -6 0
-42 12 -81 26 -68 26 -71 28 -68 57 3 27 10 32 73 57 39 15 73 25 78 23 4 -2
7 -13 7 -24z m-16 -261 c30 -43 14 -118 -24 -118 -25 0 -26 27 -3 52 13 15 14
21 4 31 -8 7 -15 8 -17 2 -31 -82 -70 -106 -99 -61 -31 47 3 132 38 97 9 -9 9
-16 -1 -31 -14 -23 -16 -44 -3 -36 5 3 12 18 16 33 3 15 11 34 17 40 16 20 55
15 72 -9z m2246 -159 c0 -11 -7 -22 -15 -25 -8 -4 -15 -18 -15 -34 0 -16 7
-30 15 -34 19 -7 20 -46 0 -46 -8 0 -44 12 -80 26 -63 25 -66 28 -63 57 3 27
10 32 73 57 39 15 73 25 78 23 4 -2 7 -13 7 -24z m-2358 -21 c4 -51 22 -53 26
-3 5 52 32 47 32 -5 0 -29 4 -40 15 -40 11 0 15 12 15 46 0 38 3 45 18 42 14
-3 18 -16 20 -71 l3 -67 -81 0 -80 0 0 70 c0 54 3 70 14 70 10 0 16 -14 18
-42z m2333 -153 c31 -30 33 -77 5 -105 -11 -11 -24 -20 -30 -20 -14 0 -13 36
2 60 10 15 10 22 1 31 -10 10 -14 8 -18 -7 -14 -45 -32 -69 -55 -72 -28 -5
-50 20 -50 58 0 27 25 70 41 70 13 0 11 -44 -3 -58 -9 -9 -9 -15 -1 -23 9 -9
14 -1 23 29 9 37 30 61 53 62 4 0 19 -11 32 -25z m-2205 -136 c0 -11 -7 -22
-15 -25 -8 -4 -15 -18 -15 -34 0 -16 7 -30 15 -34 18 -6 20 -46 3 -46 -7 0
-43 12 -81 27 -64 25 -68 28 -65 56 3 27 10 33 73 57 39 15 73 25 78 23 4 -2
7 -13 7 -24z m-20 -169 c12 -12 20 -33 20 -55 0 -34 -27 -75 -50 -75 -16 0
-12 40 5 57 17 16 16 34 0 35 -11 1 -21 -15 -35 -54 -18 -53 -90 -23 -90 38 0
12 9 32 19 45 16 20 22 22 33 11 10 -10 10 -16 0 -32 -14 -23 -16 -40 -3 -40
5 0 11 13 14 29 7 32 31 61 53 61 8 0 23 -9 34 -20z m2120 -100 c0 -22 5 -40
10 -40 6 0 10 16 10 35 0 28 4 35 20 35 16 0 20 -7 20 -35 0 -24 5 -35 15 -35
11 0 15 11 15 41 0 33 3 40 18 37 14 -3 17 -14 17 -68 l0 -65 -77 -3 -78 -3 0
71 c0 56 3 70 15 70 11 0 15 -11 15 -40z m-679 -308 c21 -54 -11 -102 -67
-102 -63 0 -95 65 -59 117 29 41 109 31 126 -15z m-177 22 c21 -20 20 -83 -1
-106 -11 -12 -30 -18 -60 -18 l-43 0 0 70 0 70 44 0 c27 0 51 -6 60 -16z"/>
<path d="M620 1661 c-25 -16 -64 -47 -87 -69 -37 -34 -43 -46 -43 -79 0 -48
-17 -104 -36 -119 -18 -14 -8 -70 15 -87 9 -7 17 -29 19 -50 3 -47 18 -77 37
-77 20 0 19 12 -5 38 -17 18 -18 25 -8 49 10 24 12 25 15 8 10 -55 14 -65 24
-65 6 0 7 5 4 10 -9 14 4 52 16 45 5 -4 12 2 16 12 3 10 15 31 26 47 18 25 19
33 8 78 -11 50 -10 58 18 90 20 23 25 23 58 -8 22 -21 33 -24 58 -18 30 7 46
7 115 2 31 -3 35 0 34 20 -1 21 0 21 19 5 20 -19 19 -48 -4 -115 -11 -29 -21
-38 -50 -47 -41 -12 -53 -38 -39 -77 11 -29 21 -30 38 -4 10 16 16 18 38 10
34 -13 34 -13 34 13 0 16 3 18 9 8 7 -11 10 -9 16 8 3 11 14 25 24 31 19 10
35 60 20 60 -5 0 -9 9 -9 19 0 11 -4 23 -10 26 -5 3 -10 32 -10 63 0 56 -2 59
-58 120 -57 63 -58 63 -127 72 -107 14 -126 12 -175 -19z"/>
<path d="M940 1227 c0 -10 -5 -27 -10 -37 -9 -16 -14 -18 -35 -8 -21 9 -27 7
-47 -17 -21 -24 -26 -26 -51 -14 -34 15 -46 5 -24 -19 23 -25 21 -32 -5 -32
-36 0 -68 11 -68 23 0 6 12 24 28 40 l27 30 -25 -13 c-49 -25 -58 -39 -53 -81
7 -46 -11 -76 -34 -58 -7 7 -16 9 -19 7 -3 -3 14 -22 37 -42 46 -38 34 -49
-22 -21 -30 16 -54 58 -44 76 3 5 1 27 -6 49 -17 57 -43 54 -58 -7 -18 -68
-38 -102 -67 -109 -40 -10 -23 -27 57 -55 41 -14 121 -49 178 -78 l104 -53
111 25 c120 27 183 52 200 79 13 21 -6 38 -73 62 -25 9 -64 31 -85 49 l-39 34
13 49 c25 98 27 112 19 125 -7 11 -9 10 -9 -4z"/>
</g>
</svg>
